<svg xmlns:rdf="http://www.w3.org/1999/02/22-rdf-syntax-ns#" xmlns="http://www.w3.org/2000/svg" xmlns:cc="http://creativecommons.org/ns#" xmlns:dc="http://purl.org/dc/elements/1.1/" height="204.27154541015625" width="302" version="1.1" style=""><rect id="backgroundrect" width="100%" height="100%" x="0" y="0" fill="none" stroke="none"/>
 
<g class="currentLayer" style=""><title>Layer 1</title><g id="svg_1" class="selected" fill="#545454" fill-opacity="1" stroke="#545454" stroke-opacity="1">
  <g id="svg_2" fill="#545454" fill-opacity="1" stroke="#545454" stroke-opacity="1">
   <g clip-path="url(#d)" stroke-width="0" id="svg_3" fill="#545454" fill-opacity="1" stroke="#545454" stroke-opacity="1">
    <g stroke-width="0" id="svg_4" fill="#545454" fill-opacity="1" stroke="#545454" stroke-opacity="1">
     <path d="m277.9826268005372,203.64527160644684 c-14.029245000000001,0 -22.350189999999998,-7.179285000000001 -22.986884999999997,-17.52009 h13.414505000000002 c0,3.4469350000000003 1.9100850000000005,8.03553 10.209075,8.320945 c5.75221,0 8.935685,-3.4469350000000003 8.935685,-6.037625 c-0.6366950000000005,-4.017765 -5.75221,-4.30318 -10.84577,-5.18138 c-5.75221,-0.8342900000000003 -10.209075,-1.9979050000000007 -13.414505000000002,-3.42498 c-4.456865,-2.305275 -7.025600000000001,-7.201240000000001 -7.025600000000001,-12.360665000000001 c0,-9.199145 7.6842500000000005,-16.37843 21.0768,-16.37843 c12.77781,0 21.0768,6.608455 21.69154,16.663845000000002 h-12.755855 c0,-2.568735 -0.6366950000000005,-6.8938700000000015 -8.29899,-6.8938700000000015 c-5.115515,0 -8.29899,0.8562450000000003 -8.935685,4.588595 c0,5.18138 10.84577,4.895965 19.14476,6.8938700000000015 c7.662295000000001,2.0198600000000004 12.77781,6.8938700000000015 12.77781,13.809695000000001 c0,12.646080000000001 -10.209075,17.52009 -22.986884999999997,17.52009 " stroke-width="0" id="svg_5" fill="#545454" fill-opacity="1" stroke="#545454" stroke-opacity="1"/>
    </g>
   </g>
  </g>
  <g id="svg_6" fill="#545454" fill-opacity="1" stroke="#545454" stroke-opacity="1">
   <path d="m33.537,118.8 l44.041729999999994,-25.577575 l23.62358,40.528929999999995 h-59.36632 " stroke-width="0" id="svg_7" fill="#545454" fill-opacity="1" stroke="#545454" stroke-opacity="1"/>
  </g>
  <g id="svg_8" fill="#545454" fill-opacity="1" stroke="#545454" stroke-opacity="1">
   <path d="m126.15,202.12 v-51.15515 " stroke="#545454" stroke-width="12.887584999999998" id="svg_9" fill="#545454" fill-opacity="1" stroke-opacity="1"/>
  </g>
  <g id="svg_10" fill="#545454" fill-opacity="1" stroke="#545454" stroke-opacity="1">
   <g clip-path="url(#c)" stroke-width="0" id="svg_11" fill="#545454" fill-opacity="1" stroke="#545454" stroke-opacity="1">
    <g stroke-width="0" id="svg_12" fill="#545454" fill-opacity="1" stroke="#545454" stroke-opacity="1">
     <path d="m13.095498199462781,177.29900360107422 c0,8.03553 7.025600000000001,14.643985000000002 14.665940000000003,14.643985000000002 c8.320945,0 14.687895000000003,-6.608455 14.687895000000003,-14.643985000000002 c0,-7.750115 -6.36695,-14.643985000000002 -14.687895000000003,-14.643985000000002 c-7.640340000000001,0 -14.665940000000003,6.8938700000000015 -14.665940000000003,14.643985000000002 m14.029245000000001,26.433819999999997 c-14.029245000000001,0 -26.148405,-11.789835 -26.148405,-26.433819999999997 s12.11916,-26.148405 26.148405,-26.148405 c5.75221,0 10.867725,1.4490300000000003 15.324590000000002,4.588595 v-4.017765 h12.77781 v50.84777999999999 h-12.77781 v-3.1615200000000003 c-3.82017,2.876105 -9.57238,4.325135 -15.324590000000002,4.325135 " stroke-width="0" id="svg_13" fill="#545454" fill-opacity="1" stroke="#545454" stroke-opacity="1"/>
    </g>
   </g>
  </g>
  <g id="svg_14" fill="#545454" fill-opacity="1" stroke="#545454" stroke-opacity="1">
   <path d="m197.59,133.74 l-61.276405,-106.87694 l44.041729999999994,-25.862989999999996 l76.600995,132.73993 " stroke-width="0" id="svg_15" fill="#545454" fill-opacity="1" stroke="#545454" stroke-opacity="1"/>
  </g>
  <g id="svg_16" fill="#545454" fill-opacity="1" stroke="#545454" stroke-opacity="1">
   <g clip-path="url(#b)" stroke-width="0" id="svg_17" fill="#545454" fill-opacity="1" stroke="#545454" stroke-opacity="1">
    <g stroke-width="0" id="svg_18" fill="#545454" fill-opacity="1" stroke="#545454" stroke-opacity="1">
     <path d="m71.82519020080554,177.29900360107422 c0,8.03553 6.388905,14.643985000000002 14.687895000000003,14.643985000000002 c7.640340000000001,0 14.687895000000003,-6.608455 14.687895000000003,-14.643985000000002 c0,-7.750115 -7.047555000000001,-14.643985000000002 -14.687895000000003,-14.643985000000002 c-8.29899,0 -14.687895000000003,6.8938700000000015 -14.687895000000003,14.643985000000002 m14.051200000000001,26.433819999999997 c-14.687895000000003,0 -26.170359999999995,-11.789835 -26.170359999999995,-26.433819999999997 s11.482465,-26.148405 26.170359999999995,-26.148405 c5.730255,0 10.84577,1.4490300000000003 15.324590000000002,4.588595 v-21.537854999999997 h12.755855 v68.36787 h-12.755855 v-3.1615200000000003 c-4.47882,2.876105 -9.594335000000001,4.325135 -15.324590000000002,4.325135 " stroke-width="0" id="svg_19" fill="#545454" fill-opacity="1" stroke="#545454" stroke-opacity="1"/>
    </g>
   </g>
  </g>
  <g id="svg_20" fill="#545454" fill-opacity="1" stroke="#545454" stroke-opacity="1">
   <path d="m85.247,73.119 l44.678425,-25.270204999999997 l49.157244999999996,85.88795999999999 h-46.610465 v12.646080000000001 h-12.755855 v-12.646080000000001 " stroke-width="0" id="svg_21" fill="#545454" fill-opacity="1" stroke="#545454" stroke-opacity="1"/>
  </g>
  <g id="svg_22" fill="#545454" fill-opacity="1" stroke="#545454" stroke-opacity="1">
   <g clip-path="url(#a)" stroke-width="0" id="svg_23" fill="#545454" fill-opacity="1" stroke="#545454" stroke-opacity="1">
    <g stroke-width="0" id="svg_24" fill="#545454" fill-opacity="1" stroke="#545454" stroke-opacity="1">
     <path d="m292.69243659973154,146.7812319946297 c-3.2054300000000002,0 -6.388905,-2.876105 -6.388905,-6.323040000000001 s3.183475,-6.323040000000001 6.388905,-6.323040000000001 c3.82017,0 6.388905,2.876105 6.388905,6.323040000000001 s-2.568735,6.323040000000001 -6.388905,6.323040000000001 m0,-11.76788 c-3.2054300000000002,0 -5.115515,2.568735 -5.115515,5.44484 s1.9100850000000005,5.466795 5.115515,5.466795 c3.183475,0 5.09356,-2.5906900000000004 5.09356,-5.466795 s-1.9100850000000005,-5.44484 -5.09356,-5.44484 " stroke-width="0" id="svg_25" fill="#545454" fill-opacity="1" stroke="#545454" stroke-opacity="1"/>
    </g>
    <g stroke-width="0" id="svg_26" fill="#545454" fill-opacity="1" stroke="#545454" stroke-opacity="1">
     <path d="m294.00968299865735,143.92764480590813 l-1.27339,-2.876105 h-1.27339 v2.876105 h-0.9660200000000004 v-6.8938700000000015 h2.876105 c0.6366950000000005,0 1.9100850000000005,0.8782000000000003 1.9100850000000005,2.0198600000000004 s-0.6366950000000005,1.71249 -1.27339,1.9979050000000007 l1.27339,2.876105 m-2.54678,-6.01567 h-1.27339 v2.2833200000000002 h1.27339 c1.27339,0 1.27339,-0.28541500000000014 1.27339,-1.1416600000000001 c0,-0.5927850000000003 0,-1.1416600000000001 -1.27339,-1.1416600000000001 " stroke-width="0" id="svg_27" fill="#545454" fill-opacity="1" stroke="#545454" stroke-opacity="1"/>
    </g>
    <g stroke-width="0" id="svg_28" fill="#545454" fill-opacity="1" stroke="#545454" stroke-opacity="1">
     <path d="m208.38531700134263,177.29900360107422 c0,8.03553 6.388905,14.643985000000002 14.687895000000003,14.643985000000002 c7.662295000000001,0 14.665940000000003,-6.608455 14.665940000000003,-14.643985000000002 c0,-7.750115 -7.003645000000001,-14.643985000000002 -14.665940000000003,-14.643985000000002 c-8.29899,0 -14.687895000000003,6.8938700000000015 -14.687895000000003,14.643985000000002 m14.029245000000001,26.433819999999997 c-14.665940000000003,0 -26.148405,-11.789835 -26.148405,-26.433819999999997 s11.482465,-26.148405 26.148405,-26.148405 c5.75221,0 10.867725,1.4490300000000003 15.324590000000002,4.588595 v-4.017765 h12.141115 v50.84777999999999 h-12.141115 v-3.1615200000000003 c-4.456865,2.876105 -9.57238,4.325135 -15.324590000000002,4.325135 " stroke-width="0" id="svg_29" fill="#545454" fill-opacity="1" stroke="#545454" stroke-opacity="1"/>
    </g>
    <g stroke-width="0" id="svg_30" fill="#545454" fill-opacity="1" stroke="#545454" stroke-opacity="1">
     <path d="m149.6995108795163,177.29900360107422 c0,8.03553 7.025600000000001,14.643985000000002 14.687895000000003,14.643985000000002 c8.29899,0 14.687895000000003,-6.608455 14.687895000000003,-14.643985000000002 c0,-7.750115 -6.388905,-14.643985000000002 -14.687895000000003,-14.643985000000002 c-7.662295000000001,0 -14.687895000000003,6.8938700000000015 -14.687895000000003,14.643985000000002 m29.37579,-43.097665 h12.755855 v68.36787 h-12.755855 v-3.1615200000000003 c-3.8421250000000002,2.876105 -8.95764,4.325135 -14.687895000000003,4.325135 c-14.687895000000003,0 -26.807055,-11.789835 -26.807055,-26.433819999999997 s12.11916,-26.148405 26.807055,-26.148405 c5.730255,0 10.84577,1.4490300000000003 14.687895000000003,4.588595 v-21.537854999999997 z" stroke-width="0" id="svg_31" fill="#545454" fill-opacity="1" stroke="#545454" stroke-opacity="1"/>
    </g>
   </g>
  </g>
 </g></g></svg>