<svg xmlns:dc="http://purl.org/dc/elements/1.1/" xmlns:cc="http://creativecommons.org/ns#" xmlns:rdf="http://www.w3.org/1999/02/22-rdf-syntax-ns#" xmlns:svg="http://www.w3.org/2000/svg" xmlns="http://www.w3.org/2000/svg" version="1.1" height="137.10041809082" width="400" style=""><rect id="backgroundrect" width="100%" height="100%" x="0" y="0" fill="none" stroke="none"/>
  <defs id="defs10738"/>
  <metadata id="metadata10741">
    <rdf:RDF>
      <cc:Work rdf:about="">
        <dc:format>image/svg+xml</dc:format>
        <dc:type rdf:resource="http://purl.org/dc/dcmitype/StillImage"/>
        <dc:title/>
      </cc:Work>
    </rdf:RDF>
  </metadata>
  
<g class="currentLayer" style=""><title>Layer 1</title><g id="layer1" class="selected" fill-opacity="1" fill="#545454">
    <g id="g10104" fill="#545454">
      <path id="path10106" style="fill-opacity: 1; fill-rule: nonzero; stroke: none;" d="m130.15354107506732,115.86426462822186 l-0.37857183434645425,-94.65038156375756 c0,-9.51625669866969 7.408131189760024,-17.21388399704759 16.909541934141618,-17.21388399704759 h1.85574428601203 c9.508833721525642,0 17.221306974191638,7.697627298377899 17.221306974191638,17.21388399704759 L166.14013426941267,115.86426462822186 c0,9.501410744381593 -7.697627298377899,17.221306974191638 -17.228729951335687,17.221306974191638 H146.95916132919228 C137.4280586762345,133.0855716024135 130.15354107506732,125.36567537260345 130.15354107506732,115.86426462822186 " stroke-width="0" fill="#545454"/>
    </g>
    <g id="g10108" fill="#545454">
      <path id="path10110" style="fill-opacity: 1; fill-rule: nonzero; stroke: none;" d="m347.5502726927863,15.179002646354888 l38.25802420042401,62.28620121570777 c8.269196538469606,13.450434585015193 10.191747618778068,16.954079797005903 10.191747618778068,26.871177261454193 c0,15.64021284250939 -14.17788634513191,27.60605199871496 -26.75983260429347,27.60605199871496 h-51.656497945430864 c-9.442026927229207,0 -17.050578499878533,-6.517373932474251 -17.050578499878533,-15.937131928271315 v-1.0763316858869776 c0,-9.412335018653016 7.608551572649322,-17.035732545590434 17.050578499878533,-17.035732545590434 h31.666420496509463 c1.981934897460848,0 3.2438410119490366,-0.2672271771857324 3.7634494120323967,-1.521710314529865 c0.5789922172357536,-1.3732507716489024 0.42310969721074293,-2.1452403946299072 -0.5196084000833684,-3.681796663447868 L329.9355479299601,56.487870452982634 c-0.37857183434645425,-0.6012611486678979 -0.794258554413149,-1.4326345888012875 -1.5068643602417684,-1.4326345888012875 c-0.6532219886762348,0 -1.2173682516238922,0.8313734401333897 -1.521710314529865,1.4771724516655762 l-34.49457478839162,59.161127838063514 C287.0678549230822,125.0836022411313 280.7434783963532,131.94243312223182 271.31629742341215,131.94243312223182 h-66.27976291920567 c-12.544831373441324,0 -25.18616144975527,-12.37410289912822 -25.18616144975527,-25.193584426899317 V21.16192222445767 c0,-9.404912041508966 7.615974549793371,-17.043155522734484 17.00604063701424,-17.043155522734484 h2.1749323032061 c9.412335018653016,0 17.050578499878533,7.638243481225515 17.050578499878533,17.043155522734484 l-0.029691908576192493,69.91702171978925 c0,2.583196046128747 1.8705902403001262,4.62451476074198 4.654206669318173,4.62451476074198 h32.958018519573656 c5.752807286637293,0 9.23418356719586,-2.0710106231894256 12.262758241967495,-7.103789126854052 L310.2201206353683,15.179002646354888 c4.231096972107429,-6.985021492549282 11.000852127479313,-10.718778996005485 18.987975534475087,-10.718778996005485 C336.93541537679744,4.460223650349349 343.0593715206371,7.956445885196047 347.5502726927863,15.179002646354888 " stroke-width="0" fill="#545454"/>
    </g>
    <g id="g10112" fill="#545454">
      <path id="path10114" style="fill-opacity: 1; fill-rule: nonzero; stroke: none;" d="m44.856110712828354,87.63468254940489 c-2.5683500918406508,0 -4.62451476074198,2.0710106231894256 -4.62451476074198,4.6319377378860285 v23.820333655250415 c0,9.412335018653016 -7.623397526937418,17.01346361415829 -17.02088659130234,17.01346361415829 h-2.189778257494196 c-9.397489064364919,0 -17.02088659130234,-7.6011285955052745 -17.02088659130234,-17.01346361415829 l0.014845954288096246,-43.32049461266483 c0,-10.993429150335265 8.439925012782712,-20.279573557539464 20.272150580395415,-20.279573557539464 h69.21183889110466 c9.390066087220871,0 17.02088659130234,7.630820504081467 17.02088659130234,17.043155522734484 V70.59895000381442 C110.51976652907808,80.0261309767555 102.88894602499659,87.63468254940489 93.49887993777565,87.63468254940489 z" stroke-width="0" fill="#545454"/>
    </g>
    <g id="g10116" fill="#545454">
      <path id="path10118" style="fill-opacity: 1; fill-rule: nonzero; stroke: none;" d="m21.22877446332336,6.449581524954908 h80.62095476150664 c9.501410744381593,0 17.228729951335687,7.415554166904071 17.228729951335687,16.909541934141618 v1.0689087087429296 c0,9.538525630101836 -7.727319206954092,17.243575905623782 -17.228729951335687,17.243575905623782 H21.22877446332336 c-9.508833721525642,0 -17.221306974191638,-7.705050275521948 -17.221306974191638,-17.243575905623782 v-1.1802533659036514 C4.007467489131841,13.731522103266116 11.7199407417977,6.449581524954908 21.22877446332336,6.449581524954908 " stroke-width="0" fill="#545454"/>
    </g>
  </g></g></svg>