<svg xmlns:dc="http://purl.org/dc/elements/1.1/" xmlns:cc="http://creativecommons.org/ns#" xmlns:rdf="http://www.w3.org/1999/02/22-rdf-syntax-ns#" xmlns:svg="http://www.w3.org/2000/svg" xmlns="http://www.w3.org/2000/svg" height="187.74667" width="241.12" xml:space="preserve" version="1.1"><rect id="backgroundrect" width="100%" height="100%" x="0" y="0" fill="none" stroke="none"/><metadata id="metadata8"><rdf:RDF><cc:Work rdf:about=""><dc:format>image/svg+xml</dc:format><dc:type rdf:resource="http://purl.org/dc/dcmitype/StillImage"/></cc:Work></rdf:RDF></metadata><defs id="defs6"/><g class="currentLayer" style=""><title>Layer 1</title><g id="g10" class="" fill-opacity="1" fill="#545454"><g id="g12" stroke-width="0" fill="#545454"><path id="path14" style="fill-opacity: 1; fill-rule: evenodd; stroke: none;" d="m22.802666436386207,0.8040052212372473 c-1.549599984350839,0.23333333097693754 -3.0390666359756215,5.937333273373159 -6.031333272423868,8.913333243319014 c-2.1926666445232788,2.138666645068616 -4.920813283638831,2.014666646320872 -6.377586602260445,4.662666619579146 c-0.5494799944508899,0.9853333233826105 -0.37134666291649643,2.6799999729351116 -0.9958266566099734,4.305333289854465 c-1.223959987639425,3.243999967239366 -5.528653277500353,3.5306666310110324 -5.528653277500353,7.070666595261142 c-0.008333333249176343,3.8226666280621715 3.5854266304580196,4.550666620710217 6.710946598893896,7.265333259961902 c2.4400933086912233,2.1759999780249264 2.6729066396734127,3.683999962795877 5.622453276553082,4.743999952091107 c2.516666641251255,0.8559999913553937 6.266666603380608,-1.9466666470075933 9.639066569323285,-0.9373333238673549 c2.769733305362242,0.8253333249984248 5.421866611912108,1.415999985700044 6.04679993893434,4.258666623659077 c0.5494666611176913,2.6266666401403826 -0.03906666627213869,6.6933332657384375 -3.3967999656962635,6.222666603824957 c-1.132933321892022,-0.1293333320272168 -6.044399938958577,-1.77733331538433 -12.069333211447077,-1.1413333218071917 C9.139586574367451,46.99867142139141 0.8390626581931079,49.373338064076705 0.025520799742269555,57.487337982134704 C-0.4239586623851763,62.01907126970279 5.188026614273621,67.36747121569016 10.6020798929313,66.28213789331743 c3.74578662883857,-0.7395999925308986 1.9765599800390385,-5.156266614594359 4.01298662614016,-7.303199926246158 c2.67293330633981,-2.748933305572298 17.822933153342397,9.596933236415449 31.905199677794517,9.596933236415449 c5.9245332735024245,0 10.339599895582044,-1.4985333181998866 14.71613318471747,-6.085999938538466 c0.411466662511331,-0.3510666631213009 0.908933324154162,-1.099999988891277 1.5442666510713663,-1.1489333217304407 c0.5958666606491051,0.04893333283916348 1.6365333168062466,0.6354666602491911 1.9802666466682723,0.8854666577244813 c11.340133218811152,9.11239990797534 19.915066465547614,27.400533056619757 61.59786604459972,27.613999721130657 c5.866666607420144,0.03546666630849451 12.538533206708703,2.833333304719956 17.991866484969698,7.804666587848594 c4.862666617559379,4.497466621247475 7.70666658883828,11.4974665505556 10.471999894244957,18.59639981219795 c4.174666624507379,10.645866559155772 11.646666549048854,21.010399787819352 22.97866643460881,32.53333300478444 c0.6186666604188517,0.6171999937669966 9.951999899496354,7.8718665871699525 10.697333225302685,8.411999915048566 c0.1173333321484029,0.08119999917997428 0.8053333252004016,1.7171999826582736 0.5666666609439912,2.6291999734481326 c-0.27733333053258863,6.914533263504574 -1.2826666537132225,27.01347839386189 13.705333194925378,27.921291384694033 c3.6573332963985123,0.18802033143454627 2.702666639372871,-2.3921849758417086 2.702666639372871,-4.1588516246670935 c-0.009333333239077504,-3.5010399646435606 -0.6453333268162158,-6.979693262846534 1.1946666546019205,-10.565106559971355 c2.5266666411502667,-4.928133283564907 -5.349333279311277,-7.195866593996767 -5.121333281613811,-17.857333152995 c0.16666666498352684,-7.942666586454954 -6.5146666008760965,-6.59213326676044 -9.897333233381758,-12.644266538974252 c-1.9479999803274615,-3.5103999645490354 -3.6853332961157452,-5.369199945777313 -3.559999964048133,-9.660933235769122 c0.7653333256043552,-24.143733089509656 -5.138666614772099,-40.007732929301675 -8.077333251761644,-43.9057328899364 c-2.2973333101329336,-2.942133303621202 -4.194666624305404,-4.10626662519814 -2.094666645512965,-5.468666611439482 c12.502666540404247,-8.261999916563392 15.338666511763941,-15.944266505648082 15.338666511763941,-15.944266505648082 c6.6493332661827855,-15.633466508786803 12.629333205791728,-29.909466364615774 20.878666455816372,-36.19479963447454 c1.6626666498756637,-1.2986666535516411 5.9186666068950045,-4.482666621396937 8.5279999138771,-5.725333275514113 c7.703999922198544,-3.627999963361412 11.750666547998575,-5.827999941143966 13.987999858737439,-8.00533325248876 c3.5266666310514276,-3.4413332985798615 6.330666602734282,-10.631999892629143 2.941333303629281,-14.989333181958468 c-4.218666624063031,-5.377333279028509 -11.509333217102427,-1.1093333221303545 -14.725333184624562,0.7999999919209287 c-22.990666434487625,13.64266652889157 -26.37599973363302,37.71199961915258 -34.341332986525735,51.530932812930736 c-6.355999935811779,11.046799888440145 -16.685333164830837,19.158799806518363 -25.92133307155796,19.822399799816772 c-6.918666596796165,0.5139999948091967 -14.386666521378036,-0.8854666577244813 -21.81599977968373,-4.150533291417766 c-18.07493315079749,-7.923999919976799 -27.960933050960367,-18.156133149977464 -30.300533027333124,-19.962799798398898 c-4.854133284312222,-3.7466666288296833 -42.5530662369301,-40.759999588371315 -73.09213259518765,-42.265332906502536 c0,0 -3.793199961693084,-7.590666590009746 -4.744799952083028,-7.717333255397226 c-2.2349333107631013,-0.28533333045179793 -4.5207999543451685,4.530666620912193 -6.15879993780327,5.09333328189658 c-1.5406666511077218,0.5106666615095262 -4.132933291595505,-5.215999947324455 -5.689066609213698,-4.963999949869362 v0 " stroke-width="0" fill="#545454"/></g></g></g></svg>