<svg xmlns:dc="http://purl.org/dc/elements/1.1/" xmlns:cc="http://creativecommons.org/ns#" xmlns:rdf="http://www.w3.org/1999/02/22-rdf-syntax-ns#" xmlns:svg="http://www.w3.org/2000/svg" xmlns="http://www.w3.org/2000/svg" xmlns:sodipodi="http://sodipodi.sourceforge.net/DTD/sodipodi-0.dtd" xmlns:inkscape="http://www.inkscape.org/namespaces/inkscape" version="1.1" inkscape:version="0.48.1 " width="500" height="110" xml:space="preserve" sodipodi:docname="reebok_logo14.svg"><rect id="backgroundrect" width="100%" height="100%" x="0" y="0" fill="none" stroke="none"/><metadata id="metadata2991"><rdf:RDF><cc:Work rdf:about=""><dc:format>image/svg+xml</dc:format><dc:type rdf:resource="http://purl.org/dc/dcmitype/StillImage"/><dc:title/></cc:Work></rdf:RDF></metadata><defs id="defs2989"><clipPath clipPathUnits="userSpaceOnUse" id="clipPath2999"><path d="m 23.4,23.4 601.2,0 0,799.2 -601.2,0 0,-799.2 z" id="path3001" inkscape:connector-curvature="0"/></clipPath><clipPath clipPathUnits="userSpaceOnUse" id="clipPath3027"><path d="M 0,0 648,0 648,846 0,846 0,0 z" id="path3029" inkscape:connector-curvature="0"/></clipPath></defs><sodipodi:namedview pagecolor="#ffffff" bordercolor="#666666" borderopacity="1" objecttolerance="10" gridtolerance="10" guidetolerance="10" inkscape:pageopacity="0" inkscape:pageshadow="2" inkscape:window-width="1366" inkscape:window-height="706" id="namedview2987" showgrid="false" fit-margin-left="0.5" fit-margin-bottom="0.5" fit-margin-top="0.5" fit-margin-right="0.5" inkscape:zoom="1.4718069" inkscape:cx="198.48263" inkscape:cy="1.7893114" inkscape:window-x="-8" inkscape:window-y="-8" inkscape:window-maximized="1" inkscape:current-layer="g2993"/><g class="currentLayer" style=""><title>Layer 1</title><g id="g2993" inkscape:groupmode="layer" inkscape:label="317420" class="selected" fill-opacity="1" fill="#545454"><g id="g3035" stroke-width="0" fill="#545454"><g style="fill-opacity: 1;" id="g3019" stroke-width="0" fill="#545454"><path inkscape:connector-curvature="0" id="path3021" style="fill-opacity: 1; fill-rule: nonzero; stroke: none;" d="M415.9135393745539,75.37679438516375 L434.00001476858984,44.190327859788496 L436.3620336298671,6.476201644500335 L432.3080721800153,6.470617675561144 L382.21428682654323,92.826697320132 L384.3306110544962,96.47302903742296 L415.9135393745539,75.37679438516375 zm4.282904176358607,7.309415341399499 l-33.995202901787735,16.99201748195468 l2.0995723211353794,3.657499655169345 l99.81344478801836,0.18427097499326472 l2.015812787047532,-3.4899805869936498 l-34.07896243587558,-17.3103037114885 l-35.854664558537955,-0.03350381363513904 zM444.46995652957077,6.492953551317896 L440.12004472594185,6.476201644500335 L442.26987276752993,44.19591182872769 L460.2335008449037,75.48847376394754 l31.75044738823342,21.347513254522752 l2.2335875756759354,-3.8082668165274707 l-49.747579279242274,-86.53476665062493 z" stroke-width="0" fill="#545454"/></g><g style="fill-opacity: 1;" id="g3023" stroke-width="0" fill="#545454"><g style="fill-opacity: 1;" clip-path="url(#clipPath3027)" id="g3025" stroke-width="0" fill="#545454"><g style="fill-opacity: 1;" id="g3031" stroke-width="0" fill="#545454"><path inkscape:connector-curvature="0" id="path3033" style="fill-opacity: 1; fill-rule: nonzero; stroke: none;" d="m302.9855448498729,67.02040240393796 l-0.011167937878379679,12.871048404832578 c-0.027919844695949197,15.054380260055805 -10.35267841325796,23.491757327171648 -24.759318276367743,23.89938705973251 l-3.11585466806793,0 c-14.417807800988163,-0.5974846764933128 -24.642054928644757,-9.02369380573078 -24.61413508394881,-23.983146593820354 l0,-12.871048404832578 c0.05025572045270856,-15.087884073690944 10.37501428901472,-23.45825351353651 24.84866177939478,-23.87146721503656 c0.7314999310338689,-0.011167937878379679 2.149828041588088,0 2.8645760658043873,0 C292.72220993964197,43.52864507676632 303.0246326324472,52.04978167797001 302.9855448498729,67.02040240393796 M275.7357764266265,55.55651417178123 C270.0568800154704,55.86921643237586 264.60134236188196,58.80080012545052 264.5790064861252,66.99248255924202 l0,12.898968249528528 c-0.022335875756759358,7.8789801731968625 5.4220338399533325,11.050674530656691 11.106514220048588,11.39688060488646 c0.29036638483787164,0.03350381363513904 1.7198624332704706,0.03350381363513904 2.0325646938651016,0.01675190681756952 c5.572801001311459,-0.312702260594631 11.09534628217021,-3.3392134256355237 11.106514220048588,-11.380128698068889 L288.84135152690504,67.02040240393796 c0.027919844695949197,-8.102338930764455 -5.500209405101991,-11.134434064744537 -11.162353909440487,-11.463888232156737 c-0.6979961173987298,-0.05025572045270856 -1.2898968249528526,-0.05025572045270856 -1.9432211908380643,0 " stroke-width="0" fill="#545454"/></g><g style="fill-opacity: 1;" id="g3043" stroke-width="0" fill="#545454"><path inkscape:connector-curvature="0" id="path3037" style="fill-opacity: 1; fill-rule: nonzero; stroke: none;" d="M324.6915881725731,68.59059545197044 C324.6915881725731,68.59059545197044 345.8548304521026,44.50693741724467 347.1168074323595,43.16678487183911 L364.8068210317129,43.21145662335263 L339.09264406674373,72.26484701395736 L366.07438198090904,102.18933655907571 L348.14984168610965,102.16141671437975 L324.66925229681635,76.05077795472806 L324.6245805453028,102.12232893180541 L310.39104371930796,102.09440908710948 L310.5250589738485,28.737809132972565 L324.74742786196504,28.760145008729324 L324.6915881725731,68.59059545197044 z" stroke-width="0" fill="#545454"/></g><g style="fill-opacity: 1;" id="g3039" stroke-width="0" fill="#545454"><path inkscape:connector-curvature="0" id="path3041" style="fill-opacity: 1; fill-rule: nonzero; stroke: none;" d="M123.44274375146779,77.16200822273186 L123.47066359616373,66.78140996477795 C123.50975137873806,51.69910986002619 112.97280199048684,43.25614882397116 98.53824228268111,42.76475955732245 L95.81884940929565,42.74800765050488 C81.2893622295237,43.20030913457926 70.9590196920225,51.598598419120776 70.94785175414412,66.66973058599415 l-0.027919844695949197,12.8040407775623 c-0.027919844695949197,14.361968111596264 10.665380673852592,23.27956650748244 24.48570379834744,23.999898500637926 c1.4685838310069275,0.027919844695949197 2.2335875756759354,-0.011167937878379679 3.221950077912537,0 c17.30471974254931,0.027919844695949197 23.77653974307033,-8.738911389832097 24.56946333243529,-18.76771960461705 l-13.021815566190702,-0.03350381363513904 c-0.34620607422977007,1.8985494393245455 -0.9883625022366015,6.767770354298084 -11.893853840474355,6.756602416419704 c-1.9153013461421151,-0.022335875756759358 -4.567686592257288,-0.4913892666487059 -6.4718200005210225,-1.1167937878379677 c-8.085587023946886,-2.7082249355070718 -6.795690198994034,-12.686777429839314 -6.795690198994034,-13.234006385879917 L123.44274375146779,77.16200822273186 zm-38.44004217738285,-11.45272029427836 c0,-7.756132856534686 5.1540033308722215,-10.777060052636388 11.262865350345903,-11.01717071702155 c0.6533243658852113,-0.01675190681756952 1.3178166696488018,-0.03350381363513904 1.8929654703853556,0.011167937878379679 c6.192621553561531,0.25686257120273265 11.3745447291297,3.5290683695679785 11.35779282231213,11.061842468535069 l0,0.9995304401149812 l-24.53595951880015,-0.022335875756759358 l0.022335875756759358,-1.0330342537501203 z" stroke-width="0" fill="#545454"/></g><g style="fill-opacity: 1;" id="g3048" stroke-width="0" fill="#545454"><path inkscape:connector-curvature="0" id="path3045" style="fill-opacity: 1; fill-rule: nonzero; stroke: none;" d="M183.07062984497088,77.24964115812554 L183.09296572072765,66.89137877592839 C183.13205350330196,51.809078671176636 172.58393617717238,43.366117635121604 158.13820853148826,42.852392492716135 l-2.697056997628692,0 C140.88932847833084,43.299110007851326 130.53106609613369,51.70298326133203 130.50873022037695,66.76853145926621 l-0.01675190681756952,12.81520871544068 c-0.027919844695949197,14.334048266900316 10.65421273597421,23.29073444536082 24.496871736225824,23.999898500637926 c1.5076716135812565,0.027919844695949197 2.2391715446151252,0 3.2387019847301066,0 c17.332639587245257,0.027919844695949197 23.759787836252762,-8.761247265588857 24.558295394556907,-18.762135635677858 l-12.949223969981235,-0.05025572045270856 c-0.42438163937842777,1.9041334082637353 -1.010698377993361,6.767770354298084 -11.983197343501393,6.751018447480515 c-1.8985494393245455,-0.01675190681756952 -4.52301484074377,-0.4913892666487059 -6.399228404311554,-1.1223777567771576 c-8.158178620156354,-2.691473028689502 -6.818026074750793,-12.675609491960934 -6.829194012629173,-13.211670510123158 L183.07062984497088,77.24964115812554 zm-38.48471392889637,-11.41921648064322 c0.022335875756759358,-7.7784687322914445 5.19867508238574,-10.804979897332338 11.262865350345903,-11.033922623839121 c0.6365724590676417,-0.022335875756759358 1.3289846075271816,-0.011167937878379679 1.9264692840204947,0.01675190681756952 c6.170285677804771,0.24569463332435296 11.35779282231213,3.5234844006287886 11.341040915494563,11.045090561717501 l0,1.005114409054171 l-24.547127456678528,-0.03350381363513904 l0.01675190681756952,-0.9995304401149812 z" stroke-width="0" fill="#545454"/></g><g style="fill-opacity: 1;" id="g3047" stroke-width="0" fill="#545454"><path inkscape:connector-curvature="0" id="path3049" style="fill-opacity: 1; fill-rule: nonzero; stroke: none;" d="m218.48609397937253,43.06908995432934 c-6.594667317183199,-0.01675190681756952 -11.112098188987778,1.7812860916015587 -13.596964366927256,3.9087782574328873 l0.01675190681756952,-18.432681468265656 l-14.127441416150292,-0.022335875756759358 l-0.11726334772298663,73.35659995413691 l2.468114271121909,0 c0,0 6.276381087649379,-3.512316462750409 6.617003192939959,-3.6295798104733956 c0.9101869370879438,0.9660266264798422 7.0972245217102845,5.505793374041181 15.651864936549117,5.505793374041181 c1.0888739431420187,0.011167937878379679 2.0939883521961895,0.09492747196622728 3.154942450642259,0.027919844695949197 c14.294960484325987,-0.2959503537770615 24.653222866523137,-9.168876998149715 24.686726680158277,-23.89938705973251 l0.011167937878379679,-12.798456808623108 C243.2789160693754,52.679100498675055 232.8983178114215,43.08025789220772 218.48609397937253,43.06908995432934 m10.615124953399883,36.86536293653131 c-0.0055839689391898395,8.029747334554989 -5.583968939189838,11.050674530656691 -11.134434064744537,11.41363251170403 c-0.29036638483787164,0 -1.7645341847839893,-0.011167937878379679 -2.0269807249259117,-0.027919844695949197 c-5.673312442216876,-0.3797098878649091 -11.11768215792697,-3.506732493811219 -11.11768215792697,-11.40804854276484 l0.03350381363513904,-12.893384280589338 c0.011167937878379679,-8.219602278487441 5.477873529345231,-11.100930251109398 11.134434064744537,-11.475056170035119 c0.6812442105811604,-0.05025572045270856 1.2954807938920425,-0.07259159620946791 1.9878929423515828,0.005583968939189839 c5.606304814946598,0.38529385680409894 11.151185971562107,3.3447973945747136 11.140018033683727,11.508559983670256 L229.1012189327724,79.93445289086065 z" stroke-width="0" fill="#545454"/></g><g style="fill-opacity: 1;" id="g3051" stroke-width="0" fill="#545454"><path inkscape:connector-curvature="0" id="path3053" style="fill-opacity: 1; fill-rule: nonzero; stroke: none;" d="m69.13230659529609,101.66446665444425 l-27.154840951280185,-30.293031495104874 c1.351320483283941,0.07817556514865776 2.691473028689502,0.13401525454055616 4.065129387730203,0.13401525454055616 c9.330812097386222,0.011167937878379679 20.945467490901084,-5.87433532402771 20.962219397718652,-20.81703620529972 c0.05025572045270856,-17.91895632586019 -14.825437533549023,-22.40288338402963 -28.00918819897623,-22.414051321908012 l-31.661103885206384,-0.07817556514865776 l-0.15076716135812568,73.35101598519772 l14.345216204778694,0.03350381363513904 l0,-32.73880989047002 l29.427516309530446,32.789065610922734 L69.13230659529609,101.66446665444425 zm-47.51399170356634,-60.89876525080438 l17.20420830164389,0.05025572045270856 c7.94598780046714,0 14.976204694907148,2.5183699915746174 14.976204694907148,10.07347996629847 C53.77639201252403,58.46688294087166 49.387392426320815,61.180691845317924 38.783435410799314,61.13043612486521 l-17.20979227058308,-0.011167937878379679 l0.044671751513518716,-20.35356678334696 z" stroke-width="0" fill="#545454"/></g></g></g></g></g></g></svg>